<svg xmlns="http://www.w3.org/2000/svg" xmlns:xlink="http://www.w3.org/1999/xlink" class="hidden dark:block h-64 w-64 -mt-[95px] -ml-[40px] object-cover overflow-hidden" zoomAndPan="magnify" preserveAspectRatio="xMidYMid meet" version="1.0" viewBox="217.93 284.93 941.58 237.92"><defs><g/><clipPath id="7413379348"><path d="M 218.089844 317 L 291 317 L 291 385 L 218.089844 385 Z M 218.089844 317 " clip-rule="nonzero"/></clipPath><clipPath id="73343dc7df"><path d="M 313 317 L 385.761719 317 L 385.761719 385 L 313 385 Z M 313 317 " clip-rule="nonzero"/></clipPath></defs><g clip-path="url(#7413379348)"><path fill="#48a0a3" d="M 258.273438 384.792969 C 260.230469 368.394531 273.304688 335.09375 290.253906 317.460938 C 265.832031 323.628906 230.410156 346.671875 217.929688 379.828125 C 231.5 370.511719 246.417969 373.300781 258.273438 384.792969 " fill-opacity="1" fill-rule="nonzero"/></g><path fill="#c3422a" d="M 265.136719 384.863281 C 268.648438 362.167969 285.042969 328.359375 301.671875 316.546875 C 305.765625 320.640625 321.988281 331.988281 334.148438 368.597656 C 336.761719 376.460938 338.109375 383.53125 338.210938 384.863281 C 318.738281 370.6875 284.535156 370.730469 265.136719 384.863281 " fill-opacity="1" fill-rule="nonzero"/><g clip-path="url(#73343dc7df)"><path fill="#3b8fe6" d="M 345.0625 384.792969 C 358.136719 372.136719 373.097656 371.371094 385.417969 379.828125 C 373.15625 347.207031 338.199219 323.800781 313.09375 317.460938 C 329.1875 334.164062 342.015625 364.636719 345.0625 384.792969 " fill-opacity="1" fill-rule="nonzero"/></g><path fill="#ffffff" d="M 299.945312 286.496094 L 294.59375 310.539062 L 308.753906 310.539062 L 303.414062 286.496094 C 302.996094 284.636719 300.351562 284.636719 299.945312 286.496094 " fill-opacity="1" fill-rule="nonzero"/><path fill="#ffffff" d="M 328.503906 430.691406 C 335.441406 430.691406 341.054688 425.074219 341.054688 418.136719 C 341.054688 411.214844 335.441406 405.585938 328.503906 405.585938 C 321.582031 405.585938 315.953125 411.203125 315.953125 418.136719 C 315.953125 425.074219 321.566406 430.691406 328.503906 430.691406 " fill-opacity="1" fill-rule="nonzero"/><path fill="#ffffff" d="M 360.109375 466.792969 L 355.089844 450.585938 L 352.957031 443.691406 C 351.488281 438.933594 347.078125 435.695312 342.101562 435.695312 L 342.101562 435.683594 C 338.863281 435.683594 318.15625 435.683594 314.90625 435.683594 L 314.90625 435.695312 C 309.929688 435.695312 305.535156 438.933594 304.054688 443.691406 L 301.921875 450.585938 L 298.105469 461.394531 C 296.464844 466.691406 304.039062 469.710938 306.492188 464.734375 L 314.574219 451.382812 L 311.0625 471.394531 L 306.535156 497.046875 C 309.769531 497.046875 311.714844 497.046875 314.90625 497.046875 C 314.90625 525.738281 314.90625 514.707031 314.90625 517.335938 C 314.90625 521.949219 319.695312 524.167969 323.078125 522.023438 C 326.488281 519.84375 325.542969 517.566406 326.195312 497.046875 L 330.8125 497.046875 C 331.523438 518.945312 331.085938 518.972656 332.742188 520.949219 C 335.832031 524.617188 342.101562 522.675781 342.101562 517.335938 C 342.101562 514.707031 342.101562 525.738281 342.101562 497.046875 C 345.265625 497.046875 347.308594 497.046875 350.472656 497.046875 L 345.960938 471.394531 L 342.433594 451.382812 L 351.722656 470.128906 C 352.765625 472.277344 355.292969 473.222656 357.496094 472.320312 C 359.660156 471.4375 360.804688 469.042969 360.109375 466.792969 " fill-opacity="1" fill-rule="nonzero"/><path fill="#ffffff" d="M 274.769531 419.488281 C 282.445312 419.488281 288.671875 413.261719 288.671875 405.585938 C 288.671875 397.910156 282.445312 391.699219 274.769531 391.699219 C 267.109375 391.699219 260.867188 397.894531 260.867188 405.585938 C 260.867188 413.261719 267.09375 419.488281 274.769531 419.488281 " fill-opacity="1" fill-rule="nonzero"/><path fill="#ffffff" d="M 306.332031 462.25 L 301.238281 444.285156 C 301.238281 444.273438 301.238281 444.273438 301.238281 444.273438 L 298.046875 432.96875 C 296.683594 428.179688 292.300781 424.796875 287.234375 424.796875 C 284.085938 424.796875 265.308594 424.796875 262.292969 424.796875 C 257.269531 424.796875 252.859375 428.136719 251.496094 432.96875 L 248.289062 444.273438 C 248.289062 444.273438 248.289062 444.273438 248.289062 444.285156 L 243.195312 462.25 C 241.773438 467.097656 248.957031 469.636719 250.796875 464.601562 L 259.707031 440.296875 C 259.707031 524.167969 258.578125 520.28125 262.582031 522.296875 C 263.378906 522.703125 264.453125 522.949219 265.542969 522.804688 C 271.199219 522.109375 269.953125 519.699219 272.636719 478.082031 L 276.890625 478.082031 C 279.660156 520.949219 278.628906 520.554688 282.503906 522.371094 C 285.929688 523.921875 289.816406 521.382812 289.816406 517.683594 C 289.816406 516.144531 289.816406 442.445312 289.816406 440.296875 L 298.726562 464.601562 C 299.425781 466.515625 301.425781 467.722656 303.402344 467.257812 C 305.691406 466.71875 306.96875 464.414062 306.332031 462.25 " fill-opacity="1" fill-rule="nonzero"/><g fill="#ffffff" fill-opacity="1"><g transform="translate(405.191746, 350.144012)"><g><path d="M 25.828125 0 L 3.5 0 L 3.5 -3.609375 L 5.140625 -3.609375 C 5.941406 -3.609375 6.632812 -3.898438 7.21875 -4.484375 C 7.800781 -5.066406 8.09375 -5.757812 8.09375 -6.5625 L 8.09375 -57.34375 C 8.09375 -58.144531 7.800781 -58.835938 7.21875 -59.421875 C 6.632812 -60.003906 5.941406 -60.296875 5.140625 -60.296875 L 3.5 -60.296875 L 3.5 -63.796875 L 39.390625 -63.796875 C 42.960938 -63.796875 46.148438 -62.992188 48.953125 -61.390625 C 51.765625 -59.785156 54.007812 -57.484375 55.6875 -54.484375 C 57.375 -51.492188 58.21875 -47.882812 58.21875 -43.65625 C 58.21875 -39.425781 57.375 -35.796875 55.6875 -32.765625 C 54.007812 -29.742188 51.765625 -27.429688 48.953125 -25.828125 C 46.148438 -24.222656 42.960938 -23.421875 39.390625 -23.421875 L 21.34375 -23.421875 L 21.34375 -6.453125 C 21.34375 -5.648438 21.632812 -4.972656 22.21875 -4.421875 C 22.800781 -3.878906 23.492188 -3.609375 24.296875 -3.609375 L 25.828125 -3.609375 Z M 21.34375 -26.921875 L 32.171875 -26.921875 C 35.960938 -26.921875 39.039062 -28.488281 41.40625 -31.625 C 43.78125 -34.757812 44.96875 -38.769531 44.96875 -43.65625 C 44.96875 -48.394531 43.816406 -52.351562 41.515625 -55.53125 C 39.222656 -58.707031 36.109375 -60.296875 32.171875 -60.296875 L 21.34375 -60.296875 Z M 21.34375 -26.921875 "/></g></g></g><g fill="#ffffff" fill-opacity="1"><g transform="translate(523.793071, 350.144012)"><g><path d="M 31.1875 -65.21875 L 34.6875 -65.21875 L 57.5625 -7.109375 C 58 -6.015625 58.707031 -5.15625 59.6875 -4.53125 C 60.675781 -3.914062 61.753906 -3.609375 62.921875 -3.609375 L 65 -3.609375 L 65 0 L 39.71875 0 L 39.71875 -3.609375 L 42.453125 -3.609375 C 42.890625 -3.609375 43.269531 -3.804688 43.59375 -4.203125 C 43.925781 -4.609375 43.984375 -5.066406 43.765625 -5.578125 L 38.625 -19.265625 L 16.625 -19.265625 L 11.375 -5.578125 C 11.15625 -5.066406 11.207031 -4.609375 11.53125 -4.203125 C 11.863281 -3.804688 12.25 -3.609375 12.6875 -3.609375 L 15.640625 -3.609375 L 15.640625 0 L 0.875 0 L 0.875 -3.609375 L 2.84375 -3.609375 C 4.007812 -3.609375 5.082031 -3.914062 6.0625 -4.53125 C 7.050781 -5.15625 7.765625 -6.015625 8.203125 -7.109375 Z M 17.9375 -22.765625 L 37.3125 -22.765625 L 27.6875 -48.03125 Z M 17.9375 -22.765625 "/></g></g></g><g fill="#ffffff" fill-opacity="1"><g transform="translate(647.536222, 350.144012)"><g><path d="M 25.828125 0 L 3.5 0 L 3.5 -3.609375 L 5.140625 -3.609375 C 5.941406 -3.609375 6.632812 -3.898438 7.21875 -4.484375 C 7.800781 -5.066406 8.09375 -5.757812 8.09375 -6.5625 L 8.09375 -57.34375 C 8.09375 -58.144531 7.800781 -58.835938 7.21875 -59.421875 C 6.632812 -60.003906 5.941406 -60.296875 5.140625 -60.296875 L 3.5 -60.296875 L 3.5 -63.796875 L 39.390625 -63.796875 C 42.960938 -63.796875 46.148438 -62.992188 48.953125 -61.390625 C 51.765625 -59.785156 54.007812 -57.484375 55.6875 -54.484375 C 57.375 -51.492188 58.21875 -47.882812 58.21875 -43.65625 C 58.21875 -39.425781 57.375 -35.796875 55.6875 -32.765625 C 54.007812 -29.742188 51.765625 -27.429688 48.953125 -25.828125 C 46.148438 -24.222656 42.960938 -23.421875 39.390625 -23.421875 L 21.34375 -23.421875 L 21.34375 -6.453125 C 21.34375 -5.648438 21.632812 -4.972656 22.21875 -4.421875 C 22.800781 -3.878906 23.492188 -3.609375 24.296875 -3.609375 L 25.828125 -3.609375 Z M 21.34375 -26.921875 L 32.171875 -26.921875 C 35.960938 -26.921875 39.039062 -28.488281 41.40625 -31.625 C 43.78125 -34.757812 44.96875 -38.769531 44.96875 -43.65625 C 44.96875 -48.394531 43.816406 -52.351562 41.515625 -55.53125 C 39.222656 -58.707031 36.109375 -60.296875 32.171875 -60.296875 L 21.34375 -60.296875 Z M 21.34375 -26.921875 "/></g></g></g><g fill="#ffffff" fill-opacity="1"><g transform="translate(766.137547, 350.144012)"><g><path d="M 3.5 -63.90625 L 25.828125 -63.796875 L 25.828125 -60.296875 L 24.296875 -60.296875 C 23.492188 -60.296875 22.800781 -60.003906 22.21875 -59.421875 C 21.632812 -58.835938 21.34375 -58.144531 21.34375 -57.34375 L 21.34375 -23.640625 C 21.34375 -18.015625 22.925781 -13.503906 26.09375 -10.109375 C 29.269531 -6.722656 33.519531 -5.03125 38.84375 -5.03125 C 44.238281 -5.03125 48.523438 -6.722656 51.703125 -10.109375 C 54.878906 -13.503906 56.46875 -18.015625 56.46875 -23.640625 L 56.46875 -57.34375 C 56.46875 -58.144531 56.175781 -58.835938 55.59375 -59.421875 C 55.007812 -60.003906 54.3125 -60.296875 53.5 -60.296875 L 51.859375 -60.296875 L 51.859375 -63.90625 L 64.453125 -63.796875 L 64.453125 -60.296875 L 62.921875 -60.296875 C 62.117188 -60.296875 61.425781 -60.003906 60.84375 -59.421875 C 60.257812 -58.835938 59.96875 -58.144531 59.96875 -57.34375 L 59.96875 -23.640625 C 59.96875 -15.023438 57.578125 -8.710938 52.796875 -4.703125 C 48.015625 -0.691406 41.722656 1.3125 33.921875 1.3125 C 28.742188 1.3125 24.21875 0.3125 20.34375 -1.6875 C 16.476562 -3.695312 13.46875 -6.578125 11.3125 -10.328125 C 9.164062 -14.085938 8.09375 -18.523438 8.09375 -23.640625 L 8.09375 -57.34375 C 8.09375 -58.144531 7.800781 -58.835938 7.21875 -59.421875 C 6.632812 -60.003906 5.941406 -60.296875 5.140625 -60.296875 L 3.5 -60.296875 Z M 3.5 -63.90625 "/></g></g></g><g fill="#ffffff" fill-opacity="1"><g transform="translate(892.068696, 350.144012)"><g><path d="M 31.1875 -65.21875 L 34.6875 -65.21875 L 57.5625 -7.109375 C 58 -6.015625 58.707031 -5.15625 59.6875 -4.53125 C 60.675781 -3.914062 61.753906 -3.609375 62.921875 -3.609375 L 65 -3.609375 L 65 0 L 39.71875 0 L 39.71875 -3.609375 L 42.453125 -3.609375 C 42.890625 -3.609375 43.269531 -3.804688 43.59375 -4.203125 C 43.925781 -4.609375 43.984375 -5.066406 43.765625 -5.578125 L 38.625 -19.265625 L 16.625 -19.265625 L 11.375 -5.578125 C 11.15625 -5.066406 11.207031 -4.609375 11.53125 -4.203125 C 11.863281 -3.804688 12.25 -3.609375 12.6875 -3.609375 L 15.640625 -3.609375 L 15.640625 0 L 0.875 0 L 0.875 -3.609375 L 2.84375 -3.609375 C 4.007812 -3.609375 5.082031 -3.914062 6.0625 -4.53125 C 7.050781 -5.15625 7.765625 -6.015625 8.203125 -7.109375 Z M 17.9375 -22.765625 L 37.3125 -22.765625 L 27.6875 -48.03125 Z M 17.9375 -22.765625 "/></g></g></g><g fill="#ffffff" fill-opacity="1"><g transform="translate(405.191746, 453.824014)"><g><path d="M 3.5 -3.609375 L 5.140625 -3.609375 C 5.941406 -3.609375 6.632812 -3.878906 7.21875 -4.421875 C 7.800781 -4.972656 8.09375 -5.648438 8.09375 -6.453125 L 8.09375 -59.53125 C 7.289062 -60.039062 6.269531 -60.296875 5.03125 -60.296875 L 3.5 -60.296875 L 3.5 -63.796875 L 28.125 -63.796875 L 28.125 -60.296875 L 26.046875 -60.296875 C 25.609375 -60.296875 25.207031 -60.09375 24.84375 -59.6875 C 24.476562 -59.289062 24.40625 -58.800781 24.625 -58.21875 L 43.109375 -15.640625 L 64.125 -63.796875 L 81.84375 -63.796875 L 81.84375 -60.296875 L 80.3125 -60.296875 C 79.507812 -60.296875 78.796875 -60.003906 78.171875 -59.421875 C 77.554688 -58.835938 77.25 -58.144531 77.25 -57.34375 L 77.25 -6.453125 C 77.25 -5.648438 77.539062 -4.972656 78.125 -4.421875 C 78.707031 -3.878906 79.398438 -3.609375 80.203125 -3.609375 L 81.84375 -3.609375 L 81.84375 0 L 59.53125 0 L 59.53125 -3.609375 L 61.0625 -3.609375 C 61.863281 -3.609375 62.570312 -3.878906 63.1875 -4.421875 C 63.8125 -4.972656 64.125 -5.648438 64.125 -6.453125 L 64.125 -54.9375 L 39.609375 1.3125 L 36.109375 1.3125 L 11.59375 -54.9375 L 11.59375 -6.453125 C 11.59375 -5.648438 11.882812 -4.972656 12.46875 -4.421875 C 13.050781 -3.878906 13.742188 -3.609375 14.546875 -3.609375 L 16.1875 -3.609375 L 16.1875 0 L 3.5 0 Z M 3.5 -3.609375 "/></g></g></g><g fill="#ffffff" fill-opacity="1"><g transform="translate(548.408243, 453.824014)"><g><path d="M 31.1875 -65.21875 L 34.6875 -65.21875 L 57.5625 -7.109375 C 58 -6.015625 58.707031 -5.15625 59.6875 -4.53125 C 60.675781 -3.914062 61.753906 -3.609375 62.921875 -3.609375 L 65 -3.609375 L 65 0 L 39.71875 0 L 39.71875 -3.609375 L 42.453125 -3.609375 C 42.890625 -3.609375 43.269531 -3.804688 43.59375 -4.203125 C 43.925781 -4.609375 43.984375 -5.066406 43.765625 -5.578125 L 38.625 -19.265625 L 16.625 -19.265625 L 11.375 -5.578125 C 11.15625 -5.066406 11.207031 -4.609375 11.53125 -4.203125 C 11.863281 -3.804688 12.25 -3.609375 12.6875 -3.609375 L 15.640625 -3.609375 L 15.640625 0 L 0.875 0 L 0.875 -3.609375 L 2.84375 -3.609375 C 4.007812 -3.609375 5.082031 -3.914062 6.0625 -4.53125 C 7.050781 -5.15625 7.765625 -6.015625 8.203125 -7.109375 Z M 17.9375 -22.765625 L 37.3125 -22.765625 L 27.6875 -48.03125 Z M 17.9375 -22.765625 "/></g></g></g><g fill="#ffffff" fill-opacity="1"><g transform="translate(672.151393, 453.824014)"><g><path d="M 3.5 -63.796875 L 17.5 -63.796875 C 20.132812 -63.796875 22.179688 -62.773438 23.640625 -60.734375 L 51.859375 -20.578125 L 51.859375 -57.34375 C 51.859375 -58.144531 51.566406 -58.835938 50.984375 -59.421875 C 50.398438 -60.003906 49.707031 -60.296875 48.90625 -60.296875 L 47.375 -60.296875 L 47.375 -63.796875 L 59.96875 -63.796875 L 59.96875 -60.296875 L 58.328125 -60.296875 C 57.523438 -60.296875 56.832031 -60.003906 56.25 -59.421875 C 55.664062 -58.835938 55.375 -58.144531 55.375 -57.34375 L 55.375 0.875 L 51.859375 0.875 L 11.59375 -54.71875 L 11.59375 -6.453125 C 11.59375 -5.648438 11.882812 -4.972656 12.46875 -4.421875 C 13.050781 -3.878906 13.742188 -3.609375 14.546875 -3.609375 L 16.1875 -3.609375 L 16.1875 0 L 3.5 0 L 3.5 -3.609375 L 5.140625 -3.609375 C 5.941406 -3.609375 6.632812 -3.878906 7.21875 -4.421875 C 7.800781 -4.972656 8.09375 -5.648438 8.09375 -6.453125 L 8.09375 -57.34375 C 8.09375 -58.144531 7.800781 -58.835938 7.21875 -59.421875 C 6.632812 -60.003906 5.941406 -60.296875 5.140625 -60.296875 L 3.5 -60.296875 Z M 3.5 -63.796875 "/></g></g></g><g fill="#ffffff" fill-opacity="1"><g transform="translate(793.597138, 453.824014)"><g><path d="M 36.4375 -60.296875 L 21.34375 -60.296875 L 21.34375 -3.609375 L 36.4375 -3.609375 C 40.882812 -3.609375 44.457031 -4.882812 47.15625 -7.4375 C 49.851562 -9.988281 51.820312 -13.414062 53.0625 -17.71875 C 54.3125 -22.03125 54.9375 -26.773438 54.9375 -31.953125 C 54.9375 -37.203125 54.3125 -41.957031 53.0625 -46.21875 C 51.820312 -50.488281 49.851562 -53.898438 47.15625 -56.453125 C 44.457031 -59.015625 40.882812 -60.296875 36.4375 -60.296875 Z M 3.5 -63.796875 L 38.078125 -63.796875 C 44.929688 -63.796875 50.582031 -62.375 55.03125 -59.53125 C 59.488281 -56.6875 62.8125 -52.851562 65 -48.03125 C 67.1875 -43.21875 68.28125 -37.859375 68.28125 -31.953125 C 68.28125 -26.117188 67.1875 -20.773438 65 -15.921875 C 62.8125 -11.066406 59.488281 -7.195312 55.03125 -4.3125 C 50.582031 -1.4375 44.929688 0 38.078125 0 L 3.5 0 L 3.5 -3.609375 L 5.140625 -3.609375 C 5.941406 -3.609375 6.632812 -3.878906 7.21875 -4.421875 C 7.800781 -4.972656 8.09375 -5.648438 8.09375 -6.453125 L 8.09375 -57.34375 C 8.09375 -58.144531 7.800781 -58.835938 7.21875 -59.421875 C 6.632812 -60.003906 5.941406 -60.296875 5.140625 -60.296875 L 3.5 -60.296875 Z M 3.5 -63.796875 "/></g></g></g><g fill="#ffffff" fill-opacity="1"><g transform="translate(925.10774, 453.824014)"><g><path d="M 3.5 -63.90625 L 25.828125 -63.796875 L 25.828125 -60.296875 L 24.296875 -60.296875 C 23.492188 -60.296875 22.800781 -60.003906 22.21875 -59.421875 C 21.632812 -58.835938 21.34375 -58.144531 21.34375 -57.34375 L 21.34375 -6.453125 C 21.34375 -5.648438 21.632812 -4.972656 22.21875 -4.421875 C 22.800781 -3.878906 23.492188 -3.609375 24.296875 -3.609375 L 25.828125 -3.609375 L 25.828125 0 L 3.5 0 L 3.5 -3.609375 L 5.140625 -3.609375 C 5.941406 -3.609375 6.632812 -3.878906 7.21875 -4.421875 C 7.800781 -4.972656 8.09375 -5.648438 8.09375 -6.453125 L 8.09375 -57.34375 C 8.09375 -58.144531 7.800781 -58.835938 7.21875 -59.421875 C 6.632812 -60.003906 5.941406 -60.296875 5.140625 -60.296875 L 3.5 -60.296875 Z M 3.5 -63.90625 "/></g></g></g><g fill="#ffffff" fill-opacity="1"><g transform="translate(1012.420443, 453.824014)"><g><path d="M 25.828125 0 L 3.5 0 L 3.5 -3.609375 L 5.140625 -3.609375 C 5.941406 -3.609375 6.632812 -3.898438 7.21875 -4.484375 C 7.800781 -5.066406 8.09375 -5.757812 8.09375 -6.5625 L 8.09375 -57.34375 C 8.09375 -58.144531 7.800781 -58.835938 7.21875 -59.421875 C 6.632812 -60.003906 5.941406 -60.296875 5.140625 -60.296875 L 3.5 -60.296875 L 3.5 -63.796875 L 34.796875 -63.796875 C 38.367188 -63.796875 41.554688 -63.101562 44.359375 -61.71875 C 47.171875 -60.332031 49.414062 -58.304688 51.09375 -55.640625 C 52.769531 -52.972656 53.609375 -49.78125 53.609375 -46.0625 C 53.609375 -41.832031 52.550781 -38.3125 50.4375 -35.5 C 48.320312 -32.695312 45.550781 -30.710938 42.125 -29.546875 L 53.390625 -7.546875 C 53.972656 -6.378906 54.832031 -5.410156 55.96875 -4.640625 C 57.101562 -3.878906 58.363281 -3.5 59.75 -3.5 L 61.0625 -3.5 L 61.0625 0 L 47.046875 0 C 43.910156 0 41.722656 -1.382812 40.484375 -4.15625 L 28.015625 -28.34375 L 21.34375 -28.34375 L 21.34375 -6.453125 C 21.34375 -5.648438 21.632812 -4.972656 22.21875 -4.421875 C 22.800781 -3.878906 23.492188 -3.609375 24.296875 -3.609375 L 25.828125 -3.609375 Z M 21.34375 -31.84375 L 29.328125 -31.84375 C 32.609375 -31.84375 35.285156 -33.171875 37.359375 -35.828125 C 39.441406 -38.492188 40.484375 -41.941406 40.484375 -46.171875 C 40.484375 -50.109375 39.476562 -53.445312 37.46875 -56.1875 C 35.46875 -58.925781 32.753906 -60.296875 29.328125 -60.296875 L 21.34375 -60.296875 Z M 21.34375 -31.84375 "/></g></g></g><g fill="#ffffff" fill-opacity="1"><g transform="translate(1132.2252, 453.824014)"><g><path d="M 3.5 -63.90625 L 25.828125 -63.796875 L 25.828125 -60.296875 L 24.296875 -60.296875 C 23.492188 -60.296875 22.800781 -60.003906 22.21875 -59.421875 C 21.632812 -58.835938 21.34375 -58.144531 21.34375 -57.34375 L 21.34375 -6.453125 C 21.34375 -5.648438 21.632812 -4.972656 22.21875 -4.421875 C 22.800781 -3.878906 23.492188 -3.609375 24.296875 -3.609375 L 25.828125 -3.609375 L 25.828125 0 L 3.5 0 L 3.5 -3.609375 L 5.140625 -3.609375 C 5.941406 -3.609375 6.632812 -3.878906 7.21875 -4.421875 C 7.800781 -4.972656 8.09375 -5.648438 8.09375 -6.453125 L 8.09375 -57.34375 C 8.09375 -58.144531 7.800781 -58.835938 7.21875 -59.421875 C 6.632812 -60.003906 5.941406 -60.296875 5.140625 -60.296875 L 3.5 -60.296875 Z M 3.5 -63.90625 "/></g></g></g><g fill="#ffffff" fill-opacity="1"><g transform="translate(405.191746, 521.738326)"><g><path d="M 14.5625 -36.484375 C 17.175781 -36.484375 19.398438 -36.195312 21.234375 -35.625 C 23.078125 -35.050781 24.578125 -34.394531 25.734375 -33.65625 C 26.898438 -32.925781 27.75 -32.273438 28.28125 -31.703125 C 28.8125 -31.140625 29.078125 -30.859375 29.078125 -30.859375 L 29.078125 -25.53125 L 26.5 -25.53125 L 26.453125 -26.015625 C 26.285156 -27.285156 25.789062 -28.519531 24.96875 -29.71875 C 24.15625 -30.925781 23.078125 -31.925781 21.734375 -32.71875 C 20.390625 -33.519531 18.835938 -33.921875 17.078125 -33.921875 C 15.816406 -33.921875 14.695312 -33.59375 13.71875 -32.9375 C 12.738281 -32.28125 12.25 -31.21875 12.25 -29.75 C 12.25 -28.53125 12.519531 -27.4375 13.0625 -26.46875 C 13.613281 -25.507812 14.523438 -24.75 15.796875 -24.1875 L 25.03125 -19.828125 C 27.070312 -18.890625 28.59375 -17.65625 29.59375 -16.125 C 30.59375 -14.59375 31.09375 -12.828125 31.09375 -10.828125 C 31.09375 -7.328125 29.742188 -4.523438 27.046875 -2.421875 C 24.359375 -0.316406 20.707031 0.734375 16.09375 0.734375 C 13.363281 0.734375 11.039062 0.4375 9.125 -0.15625 C 7.207031 -0.75 5.65625 -1.421875 4.46875 -2.171875 C 3.28125 -2.929688 2.410156 -3.601562 1.859375 -4.1875 C 1.316406 -4.78125 1.046875 -5.078125 1.046875 -5.078125 L 1.046875 -10.21875 L 3.546875 -10.21875 L 3.671875 -9.671875 C 3.878906 -8.453125 4.460938 -7.238281 5.421875 -6.03125 C 6.378906 -4.820312 7.601562 -3.8125 9.09375 -3 C 10.582031 -2.1875 12.222656 -1.78125 14.015625 -1.78125 C 15.929688 -1.78125 17.390625 -2.25 18.390625 -3.1875 C 19.390625 -4.125 19.890625 -5.347656 19.890625 -6.859375 C 19.890625 -7.878906 19.613281 -8.773438 19.0625 -9.546875 C 18.519531 -10.328125 17.53125 -11.039062 16.09375 -11.6875 L 7.65625 -15.609375 C 5.363281 -16.671875 3.6875 -17.945312 2.625 -19.4375 C 1.570312 -20.925781 1.046875 -22.734375 1.046875 -24.859375 C 1.046875 -28.367188 2.25 -31.179688 4.65625 -33.296875 C 7.0625 -35.421875 10.363281 -36.484375 14.5625 -36.484375 Z M 14.5625 -36.484375 "/></g></g></g><g fill="#ffffff" fill-opacity="1"><g transform="translate(450.059881, 521.738326)"><g><path d="M 29.875 -6.359375 C 29.875 -6.359375 29.609375 -6 29.078125 -5.28125 C 28.546875 -4.570312 27.738281 -3.75 26.65625 -2.8125 C 25.570312 -1.875 24.171875 -1.046875 22.453125 -0.328125 C 20.742188 0.378906 18.726562 0.734375 16.40625 0.734375 C 13.1875 0.734375 10.503906 0.132812 8.359375 -1.0625 C 6.210938 -2.269531 4.617188 -3.894531 3.578125 -5.9375 C 2.535156 -7.976562 2.015625 -10.242188 2.015625 -12.734375 C 2.015625 -15.222656 2.535156 -17.488281 3.578125 -19.53125 C 4.617188 -21.570312 6.210938 -23.203125 8.359375 -24.421875 C 10.503906 -25.648438 13.1875 -26.265625 16.40625 -26.265625 C 20.726562 -26.265625 24.175781 -25.140625 26.75 -22.890625 C 29.320312 -20.648438 30.609375 -17.347656 30.609375 -12.984375 L 30.609375 -11.515625 L 12.484375 -11.515625 C 12.890625 -9.140625 13.773438 -7.347656 15.140625 -6.140625 C 16.515625 -4.941406 18.179688 -4.34375 20.140625 -4.34375 C 21.367188 -4.34375 22.472656 -4.546875 23.453125 -4.953125 C 24.429688 -5.367188 25.285156 -5.847656 26.015625 -6.390625 C 26.753906 -6.941406 27.316406 -7.421875 27.703125 -7.828125 C 28.085938 -8.242188 28.28125 -8.453125 28.28125 -8.453125 Z M 20.390625 -14.015625 C 20.304688 -17.398438 19.925781 -19.867188 19.25 -21.421875 C 18.582031 -22.972656 17.65625 -23.75 16.46875 -23.75 C 15.238281 -23.75 14.226562 -22.929688 13.4375 -21.296875 C 12.644531 -19.671875 12.25 -17.328125 12.25 -14.265625 C 12.25 -14.222656 12.25 -14.179688 12.25 -14.140625 C 12.25 -14.097656 12.25 -14.054688 12.25 -14.015625 Z M 20.390625 -14.015625 "/></g></g></g><g fill="#ffffff" fill-opacity="1"><g transform="translate(495.417679, 521.738326)"><g><path d="M 19.890625 0 L 19.890625 -17.078125 C 19.890625 -18.097656 19.675781 -19.035156 19.25 -19.890625 C 18.820312 -20.753906 18.015625 -21.1875 16.828125 -21.1875 C 16.097656 -21.1875 15.488281 -20.957031 15 -20.5 C 14.507812 -20.050781 14.101562 -19.421875 13.78125 -18.609375 L 13.78125 -4.59375 C 13.78125 -4.0625 13.984375 -3.582031 14.390625 -3.15625 C 14.796875 -2.726562 15.265625 -2.515625 15.796875 -2.515625 L 16.34375 -2.515625 L 16.34375 0 L 1.046875 0 L 1.046875 -2.515625 L 1.53125 -2.515625 C 2.101562 -2.515625 2.582031 -2.726562 2.96875 -3.15625 C 3.351562 -3.582031 3.546875 -4.0625 3.546875 -4.59375 L 3.546875 -20.875 C 3.546875 -21.445312 3.351562 -21.9375 2.96875 -22.34375 C 2.582031 -22.75 2.101562 -22.953125 1.53125 -22.953125 L 1.046875 -22.953125 L 1.046875 -25.53125 L 13.78125 -25.53125 L 13.78125 -23.265625 C 14.59375 -24.203125 15.585938 -24.9375 16.765625 -25.46875 C 17.953125 -26 19.34375 -26.265625 20.9375 -26.265625 C 24.082031 -26.265625 26.398438 -25.457031 27.890625 -23.84375 C 29.378906 -22.226562 30.125 -19.972656 30.125 -17.078125 L 30.125 -4.59375 C 30.125 -4.0625 30.328125 -3.582031 30.734375 -3.15625 C 31.140625 -2.726562 31.609375 -2.515625 32.140625 -2.515625 L 32.625 -2.515625 L 32.625 0 Z M 19.890625 0 "/></g></g></g><g fill="#ffffff" fill-opacity="1"><g transform="translate(541.815956, 521.738326)"><g><path d="M 13.21875 -25.53125 L 21.421875 -25.53125 L 21.421875 -22.953125 L 13.21875 -22.953125 L 13.21875 -8.9375 C 13.21875 -7.46875 13.601562 -6.332031 14.375 -5.53125 C 15.15625 -4.738281 16.21875 -4.34375 17.5625 -4.34375 C 18.46875 -4.34375 19.296875 -4.640625 20.046875 -5.234375 C 20.804688 -5.828125 21.1875 -6.632812 21.1875 -7.65625 L 23.6875 -7.65625 C 23.6875 -5.25 22.859375 -3.25 21.203125 -1.65625 C 19.554688 -0.0625 17.160156 0.734375 14.015625 0.734375 C 10.546875 0.734375 7.851562 -0.320312 5.9375 -2.4375 C 4.019531 -4.5625 3.0625 -7.484375 3.0625 -11.203125 L 3.0625 -22.953125 L 0.484375 -22.953125 L 0.484375 -25.53125 L 3.421875 -25.53125 L 5.578125 -33.1875 L 13.21875 -33.1875 Z M 13.21875 -25.53125 "/></g></g></g><g fill="#ffffff" fill-opacity="1"><g transform="translate(579.033415, 521.738326)"><g><path d="M 16.34375 -23.6875 C 15.320312 -23.6875 14.515625 -23.195312 13.921875 -22.21875 C 13.335938 -21.238281 12.910156 -19.921875 12.640625 -18.265625 C 12.378906 -16.617188 12.25 -14.773438 12.25 -12.734375 C 12.25 -10.734375 12.378906 -8.894531 12.640625 -7.21875 C 12.910156 -5.550781 13.335938 -4.226562 13.921875 -3.25 C 14.515625 -2.269531 15.320312 -1.78125 16.34375 -1.78125 C 17.363281 -1.78125 18.171875 -2.269531 18.765625 -3.25 C 19.359375 -4.226562 19.773438 -5.550781 20.015625 -7.21875 C 20.265625 -8.894531 20.390625 -10.734375 20.390625 -12.734375 C 20.390625 -14.773438 20.265625 -16.617188 20.015625 -18.265625 C 19.773438 -19.921875 19.359375 -21.238281 18.765625 -22.21875 C 18.171875 -23.195312 17.363281 -23.6875 16.34375 -23.6875 Z M 16.34375 -26.265625 C 19.570312 -26.265625 22.234375 -25.648438 24.328125 -24.421875 C 26.429688 -23.203125 28.003906 -21.570312 29.046875 -19.53125 C 30.085938 -17.488281 30.609375 -15.222656 30.609375 -12.734375 C 30.609375 -10.242188 30.085938 -7.976562 29.046875 -5.9375 C 28.003906 -3.894531 26.429688 -2.257812 24.328125 -1.03125 C 22.234375 0.1875 19.570312 0.796875 16.34375 0.796875 C 13.125 0.796875 10.453125 0.1875 8.328125 -1.03125 C 6.203125 -2.257812 4.617188 -3.894531 3.578125 -5.9375 C 2.535156 -7.976562 2.015625 -10.242188 2.015625 -12.734375 C 2.015625 -15.222656 2.535156 -17.488281 3.578125 -19.53125 C 4.617188 -21.570312 6.203125 -23.203125 8.328125 -24.421875 C 10.453125 -25.648438 13.125 -26.265625 16.34375 -26.265625 Z M 16.34375 -26.265625 "/></g></g></g><g fill="#ffffff" fill-opacity="1"><g transform="translate(624.391204, 521.738326)"><g><path d="M 13.28125 -26.265625 C 16.101562 -26.265625 18.328125 -25.96875 19.953125 -25.375 C 21.585938 -24.78125 22.75 -24.1875 23.4375 -23.59375 C 24.132812 -23.007812 24.484375 -22.71875 24.484375 -22.71875 L 24.484375 -17.625 L 21.921875 -17.625 L 21.921875 -18.125 C 21.753906 -19.675781 21.160156 -20.988281 20.140625 -22.0625 C 19.117188 -23.144531 17.585938 -23.6875 15.546875 -23.6875 C 14.523438 -23.6875 13.71875 -23.359375 13.125 -22.703125 C 12.539062 -22.054688 12.25 -21.285156 12.25 -20.390625 C 12.25 -18.796875 13.1875 -17.609375 15.0625 -16.828125 L 20.390625 -14.5625 C 22.054688 -13.875 23.328125 -12.96875 24.203125 -11.84375 C 25.085938 -10.71875 25.53125 -9.320312 25.53125 -7.65625 C 25.53125 -5.363281 24.585938 -3.378906 22.703125 -1.703125 C 20.828125 -0.0351562 17.851562 0.796875 13.78125 0.796875 C 10.875 0.796875 8.5625 0.488281 6.84375 -0.125 C 5.132812 -0.738281 3.898438 -1.335938 3.140625 -1.921875 C 2.390625 -2.515625 2.015625 -2.8125 2.015625 -2.8125 L 2.015625 -7.890625 L 4.59375 -7.890625 L 4.65625 -7.40625 C 4.8125 -6.0625 5.285156 -4.96875 6.078125 -4.125 C 6.878906 -3.289062 7.789062 -2.691406 8.8125 -2.328125 C 9.832031 -1.960938 10.734375 -1.78125 11.515625 -1.78125 C 12.691406 -1.78125 13.613281 -2.0625 14.28125 -2.625 C 14.957031 -3.195312 15.296875 -3.9375 15.296875 -4.84375 C 15.296875 -6.59375 14.28125 -7.894531 12.25 -8.75 L 6.859375 -11.015625 C 5.546875 -11.585938 4.410156 -12.453125 3.453125 -13.609375 C 2.492188 -14.773438 2.015625 -16.175781 2.015625 -17.8125 C 2.015625 -20.34375 3.035156 -22.382812 5.078125 -23.9375 C 7.117188 -25.488281 9.851562 -26.265625 13.28125 -26.265625 Z M 13.28125 -26.265625 "/></g></g></g><g fill="#ffffff" fill-opacity="1"><g transform="translate(664.668929, 521.738326)"><g><path d="M 19.40625 -15.296875 L 19.40625 -16.828125 C 19.40625 -18.992188 18.96875 -20.6875 18.09375 -21.90625 C 17.21875 -23.132812 15.695312 -23.75 13.53125 -23.75 C 11.65625 -23.75 10.070312 -23.257812 8.78125 -22.28125 C 7.5 -21.300781 6.796875 -19.914062 6.671875 -18.125 L 6.609375 -17.625 L 4.109375 -17.625 L 4.109375 -22.71875 C 4.109375 -22.71875 4.523438 -23.007812 5.359375 -23.59375 C 6.191406 -24.1875 7.503906 -24.78125 9.296875 -25.375 C 11.097656 -25.96875 13.445312 -26.265625 16.34375 -26.265625 C 20.832031 -26.265625 24.15625 -25.265625 26.3125 -23.265625 C 28.476562 -21.265625 29.5625 -18.609375 29.5625 -15.296875 L 29.5625 -4.59375 C 29.5625 -4.0625 29.773438 -3.582031 30.203125 -3.15625 C 30.640625 -2.726562 31.125 -2.515625 31.65625 -2.515625 L 32.140625 -2.515625 L 32.140625 0 L 19.40625 0 L 19.40625 -2.578125 C 18.382812 -1.710938 17.140625 -0.929688 15.671875 -0.234375 C 14.203125 0.453125 12.46875 0.796875 10.46875 0.796875 C 7.65625 0.796875 5.539062 0.113281 4.125 -1.25 C 2.71875 -2.625 2.015625 -4.328125 2.015625 -6.359375 C 2.015625 -9.421875 3.421875 -11.675781 6.234375 -13.125 C 9.054688 -14.570312 13.019531 -15.296875 18.125 -15.296875 Z M 19.40625 -12.734375 L 18.125 -12.734375 C 16.320312 -12.734375 14.890625 -12.265625 13.828125 -11.328125 C 12.773438 -10.390625 12.25 -9.242188 12.25 -7.890625 C 12.25 -6.910156 12.550781 -6.070312 13.15625 -5.375 C 13.769531 -4.6875 14.648438 -4.34375 15.796875 -4.34375 C 16.484375 -4.34375 17.132812 -4.484375 17.75 -4.765625 C 18.363281 -5.054688 18.914062 -5.382812 19.40625 -5.75 Z M 19.40625 -12.734375 "/></g></g></g><g fill="#ffffff" fill-opacity="1"><g transform="translate(710.516369, 521.738326)"><g/></g></g><g fill="#ffffff" fill-opacity="1"><g transform="translate(738.552979, 521.738326)"><g><path d="M 21.421875 -19.09375 C 22.285156 -19.09375 23.007812 -19.390625 23.59375 -19.984375 C 24.1875 -20.578125 24.484375 -21.300781 24.484375 -22.15625 L 24.484375 -22.71875 L 27.0625 -22.71875 L 27.0625 -12.984375 L 24.484375 -12.984375 L 24.484375 -13.53125 C 24.484375 -14.382812 24.1875 -15.109375 23.59375 -15.703125 C 23.007812 -16.296875 22.285156 -16.59375 21.421875 -16.59375 L 14.8125 -16.59375 L 14.8125 -4.59375 C 14.8125 -4.0625 15.015625 -3.59375 15.421875 -3.1875 C 15.835938 -2.78125 16.304688 -2.578125 16.828125 -2.578125 L 17.328125 -2.578125 L 17.328125 0 L 1.046875 0 L 1.046875 -2.578125 L 1.53125 -2.578125 C 2.101562 -2.578125 2.582031 -2.78125 2.96875 -3.1875 C 3.351562 -3.59375 3.546875 -4.0625 3.546875 -4.59375 L 3.546875 -31.09375 C 3.546875 -31.664062 3.351562 -32.15625 2.96875 -32.5625 C 2.582031 -32.976562 2.101562 -33.1875 1.53125 -33.1875 L 1.046875 -33.1875 L 1.046875 -35.6875 L 32.140625 -35.6875 L 32.140625 -28.03125 L 29.5625 -28.03125 L 29.5 -29.015625 C 29.382812 -30.203125 28.882812 -31.191406 28 -31.984375 C 27.125 -32.785156 26.097656 -33.1875 24.921875 -33.1875 L 14.8125 -33.1875 L 14.8125 -19.09375 Z M 21.421875 -19.09375 "/></g></g></g><g fill="#ffffff" fill-opacity="1"><g transform="translate(784.400418, 521.738326)"><g><path d="M 16.34375 -23.6875 C 15.320312 -23.6875 14.515625 -23.195312 13.921875 -22.21875 C 13.335938 -21.238281 12.910156 -19.921875 12.640625 -18.265625 C 12.378906 -16.617188 12.25 -14.773438 12.25 -12.734375 C 12.25 -10.734375 12.378906 -8.894531 12.640625 -7.21875 C 12.910156 -5.550781 13.335938 -4.226562 13.921875 -3.25 C 14.515625 -2.269531 15.320312 -1.78125 16.34375 -1.78125 C 17.363281 -1.78125 18.171875 -2.269531 18.765625 -3.25 C 19.359375 -4.226562 19.773438 -5.550781 20.015625 -7.21875 C 20.265625 -8.894531 20.390625 -10.734375 20.390625 -12.734375 C 20.390625 -14.773438 20.265625 -16.617188 20.015625 -18.265625 C 19.773438 -19.921875 19.359375 -21.238281 18.765625 -22.21875 C 18.171875 -23.195312 17.363281 -23.6875 16.34375 -23.6875 Z M 16.34375 -26.265625 C 19.570312 -26.265625 22.234375 -25.648438 24.328125 -24.421875 C 26.429688 -23.203125 28.003906 -21.570312 29.046875 -19.53125 C 30.085938 -17.488281 30.609375 -15.222656 30.609375 -12.734375 C 30.609375 -10.242188 30.085938 -7.976562 29.046875 -5.9375 C 28.003906 -3.894531 26.429688 -2.257812 24.328125 -1.03125 C 22.234375 0.1875 19.570312 0.796875 16.34375 0.796875 C 13.125 0.796875 10.453125 0.1875 8.328125 -1.03125 C 6.203125 -2.257812 4.617188 -3.894531 3.578125 -5.9375 C 2.535156 -7.976562 2.015625 -10.242188 2.015625 -12.734375 C 2.015625 -15.222656 2.535156 -17.488281 3.578125 -19.53125 C 4.617188 -21.570312 6.203125 -23.203125 8.328125 -24.421875 C 10.453125 -25.648438 13.125 -26.265625 16.34375 -26.265625 Z M 16.34375 -26.265625 "/></g></g></g><g fill="#ffffff" fill-opacity="1"><g transform="translate(829.75822, 521.738326)"><g><path d="M 13.78125 -25.53125 L 13.78125 -8.453125 C 13.78125 -7.429688 13.992188 -6.488281 14.421875 -5.625 C 14.847656 -4.769531 15.648438 -4.34375 16.828125 -4.34375 C 18.222656 -4.34375 19.242188 -5.179688 19.890625 -6.859375 L 19.890625 -20.6875 C 19.890625 -21.257812 19.695312 -21.738281 19.3125 -22.125 C 18.925781 -22.519531 18.445312 -22.71875 17.875 -22.71875 L 17.328125 -22.71875 L 17.328125 -25.53125 L 30.125 -25.53125 L 30.125 -4.59375 C 30.125 -4.0625 30.328125 -3.59375 30.734375 -3.1875 C 31.140625 -2.78125 31.609375 -2.578125 32.140625 -2.578125 L 32.625 -2.578125 L 32.625 0 L 19.890625 0 L 19.890625 -2.265625 C 19.078125 -1.328125 18.078125 -0.59375 16.890625 -0.0625 C 15.710938 0.46875 14.328125 0.734375 12.734375 0.734375 C 9.585938 0.734375 7.269531 -0.0703125 5.78125 -1.6875 C 4.289062 -3.300781 3.546875 -5.554688 3.546875 -8.453125 L 3.546875 -20.9375 C 3.546875 -21.507812 3.351562 -21.988281 2.96875 -22.375 C 2.582031 -22.757812 2.101562 -22.953125 1.53125 -22.953125 L 1.046875 -22.953125 L 1.046875 -25.53125 Z M 13.78125 -25.53125 "/></g></g></g><g fill="#ffffff" fill-opacity="1"><g transform="translate(876.156479, 521.738326)"><g><path d="M 19.890625 0 L 19.890625 -17.078125 C 19.890625 -18.097656 19.675781 -19.035156 19.25 -19.890625 C 18.820312 -20.753906 18.015625 -21.1875 16.828125 -21.1875 C 16.097656 -21.1875 15.488281 -20.957031 15 -20.5 C 14.507812 -20.050781 14.101562 -19.421875 13.78125 -18.609375 L 13.78125 -4.59375 C 13.78125 -4.0625 13.984375 -3.582031 14.390625 -3.15625 C 14.796875 -2.726562 15.265625 -2.515625 15.796875 -2.515625 L 16.34375 -2.515625 L 16.34375 0 L 1.046875 0 L 1.046875 -2.515625 L 1.53125 -2.515625 C 2.101562 -2.515625 2.582031 -2.726562 2.96875 -3.15625 C 3.351562 -3.582031 3.546875 -4.0625 3.546875 -4.59375 L 3.546875 -20.875 C 3.546875 -21.445312 3.351562 -21.9375 2.96875 -22.34375 C 2.582031 -22.75 2.101562 -22.953125 1.53125 -22.953125 L 1.046875 -22.953125 L 1.046875 -25.53125 L 13.78125 -25.53125 L 13.78125 -23.265625 C 14.59375 -24.203125 15.585938 -24.9375 16.765625 -25.46875 C 17.953125 -26 19.34375 -26.265625 20.9375 -26.265625 C 24.082031 -26.265625 26.398438 -25.457031 27.890625 -23.84375 C 29.378906 -22.226562 30.125 -19.972656 30.125 -17.078125 L 30.125 -4.59375 C 30.125 -4.0625 30.328125 -3.582031 30.734375 -3.15625 C 31.140625 -2.726562 31.609375 -2.515625 32.140625 -2.515625 L 32.625 -2.515625 L 32.625 0 Z M 19.890625 0 "/></g></g></g><g fill="#ffffff" fill-opacity="1"><g transform="translate(922.554738, 521.738326)"><g><path d="M 29.5625 -40.765625 L 29.5625 -4.59375 C 29.5625 -4.0625 29.773438 -3.59375 30.203125 -3.1875 C 30.640625 -2.78125 31.125 -2.578125 31.65625 -2.578125 L 32.140625 -2.578125 L 32.140625 0 L 19.40625 0.25 L 19.40625 -2.015625 C 18.550781 -1.160156 17.550781 -0.488281 16.40625 0 C 15.257812 0.488281 13.953125 0.734375 12.484375 0.734375 C 10.117188 0.734375 8.160156 0.132812 6.609375 -1.0625 C 5.054688 -2.269531 3.898438 -3.894531 3.140625 -5.9375 C 2.390625 -7.976562 2.015625 -10.242188 2.015625 -12.734375 C 2.015625 -15.222656 2.390625 -17.488281 3.140625 -19.53125 C 3.898438 -21.570312 5.054688 -23.203125 6.609375 -24.421875 C 8.160156 -25.648438 10.117188 -26.265625 12.484375 -26.265625 C 13.953125 -26.265625 15.257812 -26.019531 16.40625 -25.53125 C 17.550781 -25.039062 18.550781 -24.367188 19.40625 -23.515625 L 19.40625 -36.234375 C 19.40625 -36.804688 19.203125 -37.285156 18.796875 -37.671875 C 18.390625 -38.066406 17.898438 -38.265625 17.328125 -38.265625 L 16.828125 -38.265625 L 16.828125 -40.765625 Z M 19.40625 -18.921875 C 19.125 -19.609375 18.726562 -20.15625 18.21875 -20.5625 C 17.707031 -20.976562 17.082031 -21.1875 16.34375 -21.1875 C 14.832031 -21.1875 13.769531 -20.359375 13.15625 -18.703125 C 12.550781 -17.046875 12.25 -15.054688 12.25 -12.734375 C 12.25 -10.410156 12.550781 -8.429688 13.15625 -6.796875 C 13.769531 -5.160156 14.832031 -4.34375 16.34375 -4.34375 C 17.082031 -4.34375 17.707031 -4.546875 18.21875 -4.953125 C 18.726562 -5.367188 19.125 -5.921875 19.40625 -6.609375 Z M 19.40625 -18.921875 "/></g></g></g><g fill="#ffffff" fill-opacity="1"><g transform="translate(968.402153, 521.738326)"><g><path d="M 19.40625 -15.296875 L 19.40625 -16.828125 C 19.40625 -18.992188 18.96875 -20.6875 18.09375 -21.90625 C 17.21875 -23.132812 15.695312 -23.75 13.53125 -23.75 C 11.65625 -23.75 10.070312 -23.257812 8.78125 -22.28125 C 7.5 -21.300781 6.796875 -19.914062 6.671875 -18.125 L 6.609375 -17.625 L 4.109375 -17.625 L 4.109375 -22.71875 C 4.109375 -22.71875 4.523438 -23.007812 5.359375 -23.59375 C 6.191406 -24.1875 7.503906 -24.78125 9.296875 -25.375 C 11.097656 -25.96875 13.445312 -26.265625 16.34375 -26.265625 C 20.832031 -26.265625 24.15625 -25.265625 26.3125 -23.265625 C 28.476562 -21.265625 29.5625 -18.609375 29.5625 -15.296875 L 29.5625 -4.59375 C 29.5625 -4.0625 29.773438 -3.582031 30.203125 -3.15625 C 30.640625 -2.726562 31.125 -2.515625 31.65625 -2.515625 L 32.140625 -2.515625 L 32.140625 0 L 19.40625 0 L 19.40625 -2.578125 C 18.382812 -1.710938 17.140625 -0.929688 15.671875 -0.234375 C 14.203125 0.453125 12.46875 0.796875 10.46875 0.796875 C 7.65625 0.796875 5.539062 0.113281 4.125 -1.25 C 2.71875 -2.625 2.015625 -4.328125 2.015625 -6.359375 C 2.015625 -9.421875 3.421875 -11.675781 6.234375 -13.125 C 9.054688 -14.570312 13.019531 -15.296875 18.125 -15.296875 Z M 19.40625 -12.734375 L 18.125 -12.734375 C 16.320312 -12.734375 14.890625 -12.265625 13.828125 -11.328125 C 12.773438 -10.390625 12.25 -9.242188 12.25 -7.890625 C 12.25 -6.910156 12.550781 -6.070312 13.15625 -5.375 C 13.769531 -4.6875 14.648438 -4.34375 15.796875 -4.34375 C 16.484375 -4.34375 17.132812 -4.484375 17.75 -4.765625 C 18.363281 -5.054688 18.914062 -5.382812 19.40625 -5.75 Z M 19.40625 -12.734375 "/></g></g></g><g fill="#ffffff" fill-opacity="1"><g transform="translate(1014.249569, 521.738326)"><g><path d="M 13.21875 -25.53125 L 21.421875 -25.53125 L 21.421875 -22.953125 L 13.21875 -22.953125 L 13.21875 -8.9375 C 13.21875 -7.46875 13.601562 -6.332031 14.375 -5.53125 C 15.15625 -4.738281 16.21875 -4.34375 17.5625 -4.34375 C 18.46875 -4.34375 19.296875 -4.640625 20.046875 -5.234375 C 20.804688 -5.828125 21.1875 -6.632812 21.1875 -7.65625 L 23.6875 -7.65625 C 23.6875 -5.25 22.859375 -3.25 21.203125 -1.65625 C 19.554688 -0.0625 17.160156 0.734375 14.015625 0.734375 C 10.546875 0.734375 7.851562 -0.320312 5.9375 -2.4375 C 4.019531 -4.5625 3.0625 -7.484375 3.0625 -11.203125 L 3.0625 -22.953125 L 0.484375 -22.953125 L 0.484375 -25.53125 L 3.421875 -25.53125 L 5.578125 -33.1875 L 13.21875 -33.1875 Z M 13.21875 -25.53125 "/></g></g></g><g fill="#ffffff" fill-opacity="1"><g transform="translate(1051.467002, 521.738326)"><g><path d="M 2.515625 -35.453125 C 2.515625 -37.117188 3.113281 -38.550781 4.3125 -39.75 C 5.519531 -40.957031 6.957031 -41.5625 8.625 -41.5625 C 10.300781 -41.5625 11.738281 -40.957031 12.9375 -39.75 C 14.144531 -38.550781 14.75 -37.117188 14.75 -35.453125 C 14.75 -33.773438 14.144531 -32.332031 12.9375 -31.125 C 11.738281 -29.925781 10.300781 -29.328125 8.625 -29.328125 C 6.957031 -29.328125 5.519531 -29.925781 4.3125 -31.125 C 3.113281 -32.332031 2.515625 -33.773438 2.515625 -35.453125 Z M 1.046875 -25.53125 L 13.78125 -25.53125 L 13.78125 -4.59375 C 13.78125 -4.0625 13.984375 -3.582031 14.390625 -3.15625 C 14.796875 -2.726562 15.265625 -2.515625 15.796875 -2.515625 L 16.34375 -2.515625 L 16.34375 0 L 1.046875 0 L 1.046875 -2.515625 L 1.53125 -2.515625 C 2.101562 -2.515625 2.582031 -2.726562 2.96875 -3.15625 C 3.351562 -3.582031 3.546875 -4.0625 3.546875 -4.59375 L 3.546875 -20.875 C 3.546875 -21.445312 3.351562 -21.9375 2.96875 -22.34375 C 2.582031 -22.75 2.101562 -22.953125 1.53125 -22.953125 L 1.046875 -22.953125 Z M 1.046875 -25.53125 "/></g></g></g><g fill="#ffffff" fill-opacity="1"><g transform="translate(1081.523372, 521.738326)"><g><path d="M 16.34375 -23.6875 C 15.320312 -23.6875 14.515625 -23.195312 13.921875 -22.21875 C 13.335938 -21.238281 12.910156 -19.921875 12.640625 -18.265625 C 12.378906 -16.617188 12.25 -14.773438 12.25 -12.734375 C 12.25 -10.734375 12.378906 -8.894531 12.640625 -7.21875 C 12.910156 -5.550781 13.335938 -4.226562 13.921875 -3.25 C 14.515625 -2.269531 15.320312 -1.78125 16.34375 -1.78125 C 17.363281 -1.78125 18.171875 -2.269531 18.765625 -3.25 C 19.359375 -4.226562 19.773438 -5.550781 20.015625 -7.21875 C 20.265625 -8.894531 20.390625 -10.734375 20.390625 -12.734375 C 20.390625 -14.773438 20.265625 -16.617188 20.015625 -18.265625 C 19.773438 -19.921875 19.359375 -21.238281 18.765625 -22.21875 C 18.171875 -23.195312 17.363281 -23.6875 16.34375 -23.6875 Z M 16.34375 -26.265625 C 19.570312 -26.265625 22.234375 -25.648438 24.328125 -24.421875 C 26.429688 -23.203125 28.003906 -21.570312 29.046875 -19.53125 C 30.085938 -17.488281 30.609375 -15.222656 30.609375 -12.734375 C 30.609375 -10.242188 30.085938 -7.976562 29.046875 -5.9375 C 28.003906 -3.894531 26.429688 -2.257812 24.328125 -1.03125 C 22.234375 0.1875 19.570312 0.796875 16.34375 0.796875 C 13.125 0.796875 10.453125 0.1875 8.328125 -1.03125 C 6.203125 -2.257812 4.617188 -3.894531 3.578125 -5.9375 C 2.535156 -7.976562 2.015625 -10.242188 2.015625 -12.734375 C 2.015625 -15.222656 2.535156 -17.488281 3.578125 -19.53125 C 4.617188 -21.570312 6.203125 -23.203125 8.328125 -24.421875 C 10.453125 -25.648438 13.125 -26.265625 16.34375 -26.265625 Z M 16.34375 -26.265625 "/></g></g></g><g fill="#ffffff" fill-opacity="1"><g transform="translate(1126.881148, 521.738326)"><g><path d="M 19.890625 0 L 19.890625 -17.078125 C 19.890625 -18.097656 19.675781 -19.035156 19.25 -19.890625 C 18.820312 -20.753906 18.015625 -21.1875 16.828125 -21.1875 C 16.097656 -21.1875 15.488281 -20.957031 15 -20.5 C 14.507812 -20.050781 14.101562 -19.421875 13.78125 -18.609375 L 13.78125 -4.59375 C 13.78125 -4.0625 13.984375 -3.582031 14.390625 -3.15625 C 14.796875 -2.726562 15.265625 -2.515625 15.796875 -2.515625 L 16.34375 -2.515625 L 16.34375 0 L 1.046875 0 L 1.046875 -2.515625 L 1.53125 -2.515625 C 2.101562 -2.515625 2.582031 -2.726562 2.96875 -3.15625 C 3.351562 -3.582031 3.546875 -4.0625 3.546875 -4.59375 L 3.546875 -20.875 C 3.546875 -21.445312 3.351562 -21.9375 2.96875 -22.34375 C 2.582031 -22.75 2.101562 -22.953125 1.53125 -22.953125 L 1.046875 -22.953125 L 1.046875 -25.53125 L 13.78125 -25.53125 L 13.78125 -23.265625 C 14.59375 -24.203125 15.585938 -24.9375 16.765625 -25.46875 C 17.953125 -26 19.34375 -26.265625 20.9375 -26.265625 C 24.082031 -26.265625 26.398438 -25.457031 27.890625 -23.84375 C 29.378906 -22.226562 30.125 -19.972656 30.125 -17.078125 L 30.125 -4.59375 C 30.125 -4.0625 30.328125 -3.582031 30.734375 -3.15625 C 31.140625 -2.726562 31.609375 -2.515625 32.140625 -2.515625 L 32.625 -2.515625 L 32.625 0 Z M 19.890625 0 "/></g></g></g></svg>